<svg viewBox="0 0 16 16" xmlns="http://www.w3.org/2000/svg">
  <path fill="currentColor" d="M8 0C3.58 0 0 3.58 0 8C0 11.54 2.29 14.53 5.47 15.59C5.87 15.66 6.02 15.42 6.02 15.21C6.02 15.02 6.01 14.39 6.01 13.72C3.78 14.21 3.31 12.65 3.31 12.65C2.95 11.73 2.43 11.48 2.43 11.48C1.71 10.99 2.48 11.01 2.48 11.01C3.27 11.06 3.7 11.83 3.7 11.83C4.41 13.04 5.56 12.69 6.04 12.49C6.11 11.96 6.33 11.61 6.57 11.41C4.79 11.21 2.92 10.53 2.92 7.58C2.92 6.74 3.22 6.05 3.7 5.5C3.62 5.3 3.36 4.52 3.78 3.46C3.78 3.46 4.41 3.26 6.01 4.34C6.61 4.17 7.25 4.09 7.89 4.09C8.53 4.09 9.17 4.17 9.77 4.34C11.37 3.26 12 3.46 12 3.46C12.42 4.52 12.16 5.3 12.08 5.5C12.56 6.05 12.86 6.74 12.86 7.58C12.86 10.54 10.98 11.21 9.19 11.41C9.49 11.67 9.76 12.18 9.76 12.96C9.76 14.07 9.75 14.97 9.75 15.21C9.75 15.42 9.9 15.67 10.3 15.59C13.48 14.53 15.77 11.54 15.77 8C15.77 3.58 12.19 0 8 0Z"/>
</svg>
